<?xml version="1.0" encoding="UTF-8"?>
<!-- Generator: Adobe Illustrator 21.1.0, SVG Export Plug-In . SVG Version: 6.00 Build 0)  -->
<svg version="1.1" xmlns="http://www.w3.org/2000/svg" xmlns:xlink="http://www.w3.org/1999/xlink" x="0px" y="0px" viewBox="0 0 223.6460266 237.5482483" style="enable-background:new 0 0 223.6460266 237.5482483;" xml:space="preserve">
<style type="text/css">
	.st0{enable-background:new    ;}
	.st1{fill:#A1A0A6;}
	.st2{fill:#5D5D60;}
	.st3{fill:#696769;}
	.st4{fill:#414041;}
	.st5{fill:#3C3B3C;}
	.st6{clip-path:url(#SVGID_2_);enable-background:new    ;}
	.st7{fill:#5B5A5E;}
	.st8{fill:#5F5E61;}
	.st9{fill:#626165;}
	.st10{fill:#666568;}
	.st11{fill:#69686C;}
	.st12{fill:#6D6C70;}
	.st13{fill:#706F73;}
	.st14{fill:#747377;}
	.st15{fill:#77767A;}
	.st16{fill:#7A7A7E;}
	.st17{fill:#7E7D80;}
	.st18{fill:#808083;}
	.st19{fill:#838287;}
	.st20{fill:#87868A;}
	.st21{fill:#8A898E;}
	.st22{fill:#8E8D92;}
	.st23{fill:#919095;}
	.st24{fill:#959499;}
	.st25{fill:#98979C;}
	.st26{fill:#9C9BA0;}
	.st27{fill:#9F9EA4;}
	.st28{fill:#A2A2A7;}
	.st29{fill:#A6A5AB;}
	.st30{fill:#A9A9AE;}
	.st31{fill:#ADACB2;}
	.st32{fill:#B7B6BB;}
	.st33{fill:#BBBABF;}
	.st34{fill:#BEBDC2;}
	.st35{fill:#C0BFC4;}
	.st36{fill:#C2C2C6;}
	.st37{fill:#C5C4C8;}
	.st38{clip-path:url(#SVGID_4_);enable-background:new    ;}
	.st39{fill:#434243;}
	.st40{fill:#454445;}
	.st41{fill:#484648;}
	.st42{fill:#4A494A;}
	.st43{fill:#4C4B4C;}
	.st44{fill:#4E4D4E;}
	.st45{fill:#514F51;}
	.st46{fill:#535153;}
	.st47{fill:#555455;}
	.st48{fill:#575657;}
	.st49{fill:#5A585A;}
	.st50{fill:#5C5A5C;}
	.st51{fill:#5E5C5E;}
	.st52{fill:#605F60;}
	.st53{fill:#636163;}
	.st54{fill:#656365;}
	.st55{fill:#676567;}
	.st56{fill:#6C6A6C;}
	.st57{fill:#6E6C6E;}
	.st58{fill:#706E70;}
	.st59{fill:#807F80;}
	.st60{fill:#868586;}
	.st61{fill:#8C8A8C;}
	.st62{fill:#908F90;}
	.st63{fill:#949394;}
	.st64{fill:#989798;}
	.st65{fill:#3F3E3F;}
	.st66{fill:#3A393A;}
	.st67{fill:#686868;}
	.st68{fill:#666569;}
	.st69{fill:#C2C2C4;}
	.st70{clip-path:url(#SVGID_6_);enable-background:new    ;}
	.st71{clip-path:url(#SVGID_8_);enable-background:new    ;}
	.st72{opacity:0.5;clip-path:url(#SVGID_10_);fill:#FFFFFF;}
	.st73{fill:#4D4D4F;}
	.st74{fill:#E4D0BF;}
	.st75{fill:#39393A;}
	.st76{fill:#0B0B0B;}
	.st77{fill:#9B5467;}
	.st78{fill:#FFFFFF;}
	.st79{fill:#FFB000;}
</style>
<g id="Ebene_1">
</g>
<g id="board">
</g>
<g id="textur">
</g>
<g id="ninja">
	<g>
		<g>
			<g>
				<path class="st74" d="M191.321701,38.4563141c0,0-2.3199005-11.0195293-13.3394318-17.3992558      c-11.019516-6.3797283-15.0793457-11.5995045-28.7087708-13.919405      c-13.6294098-2.3199005-18.8491821-7.5396776-50.1678467-5.7997518S9.2094965-5.0418262,3.9897194,64.5551987      S1.0898435,163.730957,6.8895955,185.7700043c8.7694645,33.3239746,60.317421,41.1782532,111.0652466,49.8778687      c50.7478256,8.6996307,102.3656235-61.4773712,103.5255814-78.8766174      C222.6403656,139.371994,215.1006927,68.6150208,191.321701,38.4563141z"/>
				<path d="M82.7039795,91.859314c0.8321075-3.7693558-0.2818756-7.724556-3.0373154-10.427887      c-2.6432571-2.5932693-6.3455353-5.2930832-10.4984055-5.5897141      c-8.2016716-0.5858307-16.4033394-3.5149994-20.5041733,3.5149994      c-4.1008339,7.0300064-7.6158371,33.9783478,7.0300026,35.1500092      c14.6458397,1.171669,20.5041695-0.5858307,23.4333382-9.3733292      C80.6758881,100.4880066,81.8969193,95.5151978,82.7039795,91.859314z"/>
				<path d="M154.5452423,65.5933838c0,0-16.4033356-2.3433342-17.5750122,5.2724991      c-1.1716614,7.6158371,0,28.1200104,11.7166748,31.6350098c11.7166748,3.515007,25.7766724,1.171669,25.1908417-9.9591675      S167.3770294,66.0947037,154.5452423,65.5933838z"/>
				<path class="st76" d="M25.7209854,173.5336761c0,0,59.8187485,5.8583374,102.5845871-1.1716766      c42.7658539-7.0299988,81.4308624-29.8775024,81.4308624-29.8775024s-26.3625031,57.4116821-84.3600235,58.5833435      C67.378891,202.2395172,25.0714226,179.3920135,25.7209854,173.5336761z"/>
				<path class="st77" d="M91.3980713,184.0786743c0,0,65.0275116-7.6158295,62.0983429-1.1716614      c-2.9291534,6.4441681-13.5452728,13.4741669-35.7713928,14.0599976S91.3980713,184.0786743,91.3980713,184.0786743z"/>
			</g>
			<path class="st75" d="M194.5106354,35.823864c0,0-13.7452545-23.1620255-43.9007721-30.4930191     c-13.325592-3.2395306-20.3384857-5.9582276-51.5960312-5.203896C67.3392639,0.891345,8.2097073-6.3172555,2.9372053,63.982769     s-2.929096,100.1775208,2.9290962,122.4392395c8.8580856,33.6605682,60.9268265,41.594101,112.1871872,50.3816071     s104.3210526-62.7527161,105.4926376-80.3277283C224.7177277,138.9008942,215.6165924,72.0784683,194.5106354,35.823864z      M199.7772675,115.8602524c-3.5149994,19.0707626-182.7800598,17.8367386-188.0525513,12.5642319     c-5.2725019-5.2724915-1.7575006-52.7250137,10.5450039-64.6064835s117.752533-17.9960365,117.752533-17.9960365     s31.5424347-4.7837639,44.3151093,4.4426498C195.6073761,58.4055939,203.2922668,96.7894821,199.7772675,115.8602524z"/>
			<circle class="st78" cx="66.7038345" cy="90.0950317" r="7.9083571"/>
			<circle class="st78" cx="158.9680023" cy="78.5576935" r="7.9083571"/>
		</g>
	</g>
</g>
</svg>